<?xml version="1.0" encoding="utf-8"?>
<!-- Svg Vector Icons : http://www.onlinewebfonts.com/icon -->
<!DOCTYPE svg PUBLIC "-//W3C//DTD SVG 1.1//EN" "http://www.w3.org/Graphics/SVG/1.1/DTD/svg11.dtd">
<svg version="1.1" xmlns="http://www.w3.org/2000/svg" xmlns:xlink="http://www.w3.org/1999/xlink" x="0px" y="0px" viewBox="0 0 256 256" enable-background="new 0 0 256 256" xml:space="preserve">
<metadata> Svg Vector Icons : http://www.onlinewebfonts.com/icon </metadata>
<g><g><g><path fill="#000000" d="M37,128v118h62.7h62.7v-28.3v-28.3h28.3H219V99.7V10h-91H37V128z M115.5,41c3.9,1.2,7.1,3.9,8.8,7.4c0.7,1.5,1.3,2.9,1.2,3c-0.1,0.1-1.9,0.6-3.9,1l-3.8,0.9l-0.8-1.8c-2.8-6.2-12.5-6-15.3,0.3c-1.7,3.7-1.7,12.7-0.1,16.3c3.4,7.3,13.8,6.5,15.8-1.3c0.2-1.2,0.7-1.6,1.4-1.4c0.6,0.2,2.3,0.7,3.9,1.1c1.6,0.4,2.9,1,2.9,1.2c0,1.4-2.3,5.3-4.4,7.6c-4.1,4.4-11.4,5.9-18,3.6c-3.9-1.4-8.5-6-9.8-9.9c-2.2-6.3-1.8-14.6,0.9-19.9C97.9,42.1,107,38.5,115.5,41z M141.5,54.8c2.6,7.6,4.9,13.5,5,13.2c0.2-0.3,2.3-6.6,4.7-14l4.5-13.3h4.2h4.2l-2.7,7.5c-1.5,4.2-4.5,12.9-6.9,19.4l-4.2,11.9h-4.3h-4.3l-4.5-12.8c-2.5-7-5.6-15.7-6.9-19.4l-2.4-6.6l4.4,0.2l4.4,0.2L141.5,54.8z M182.1,112.6v4.9H128H73.9v-4.9v-4.9H128h54.1V112.6z M182.1,143.7v5.2H128H73.9v-5.2v-5.2H128h54.1V143.7z M182.1,175v5.2H128H73.9V175v-5.2H128h54.1V175z"/><path fill="#000000" d="M167.9,220.2V246h4.8h4.7l20.1-20.2c11-11.1,20.3-20.7,20.7-21.4c0.4-0.7,0.7-3.3,0.7-5.7v-4.4h-25.5h-25.5V220.2z M205.4,204.4c0,0.1-6.3,6.5-14.1,14.3l-14.1,14.1v-14.3v-14.3h14.1C199.1,204.2,205.4,204.3,205.4,204.4z"/><path fill="#000000" d="M182.7,214.5v5.4l5.2-5.2c2.9-2.9,5.2-5.3,5.2-5.3c0-0.1-2.3-0.2-5.2-0.2h-5.2V214.5z"/></g></g></g>
</svg>